<svg xmlns="http://www.w3.org/2000/svg" width="35" height="35" style="width:100%;height:100%;transform:translate3d(0,0,0);content-visibility:visible" viewBox="0 0 430 430"><defs><clipPath id="a"><path d="M0 0h430v430H0z"/></clipPath><clipPath id="b"><path d="M0 0h430v430H0z"/></clipPath><clipPath id="c"><path d="M0 0h430v430H0z"/></clipPath></defs><g clip-path="url(#a)"><g clip-path="url(#b)" style="display:block"><path d="M173.46-37.205v112.71h-60.95v.01c.02.39-60.63.38-60.61-.01H-86.23c.02.39-60.63.39-60.61 0h-26.62v-182.53H82.67v31.82h52.79c1.2 0 2.38.06 3.54.17.58.06 1.17.12 1.75.2.28.04.56.09.85.13 1.71.27 3.38.66 5.01 1.17.27.08.54.17.81.26.26.09.53.18.8.27.79.29 1.58.6 2.35.93.26.11.51.23.77.35.32.14.64.3.96.45.93.46 1.85.96 2.73 1.5.24.14.48.29.71.44.24.15.47.3.7.45.23.15.46.31.69.47.23.16.45.32.68.48.12.09.25.19.38.28.32.23.63.48.94.73.21.17.43.34.64.52l.63.54c1.25 1.08 2.44 2.25 3.53 3.5.36.42.72.84 1.07 1.27.31.38.61.77.91 1.16.03.05.07.1.11.15.32.44.64.88.95 1.34 0 0 0 .01.01.02.31.46.61.92.9 1.4.57.92 1.1 1.87 1.58 2.85.03.05.06.11.08.16.24.47.46.95.67 1.43.46 1.02.87 2.07 1.23 3.14.01.02.01.04.02.05a40.85 40.85 0 0 1 .93 3.22c.14.56.26 1.12.37 1.68.09.5.18 1 .26 1.5l.03.2v.01l.12.88c.04.27.07.54.09.82a32.104 32.104 0 0 1 .17 2.46c.02.47.03.95.03 1.42z" class="secondary" style="display:block" transform="translate(215 268.617)"/><g opacity=".5" style="mix-blend-mode:multiply;display:block"><path d="M63.24 161.592v182.53h-21.7v-182.53h21.7z" class="secondary" opacity="1"/></g><g opacity=".5" style="mix-blend-mode:multiply;display:block"><path d="M388.46 231.412v112.72h-90.79v-150.71h52.79c1.19 0 2.37.06 3.54.16.58.06 1.17.12 1.75.2.28.04.56.09.85.13a38.003 38.003 0 0 1 5.82 1.43c.26.09.53.18.8.27.79.29 1.58.6 2.35.93.26.11.51.23.77.35.32.14.64.3.96.45.93.47 1.84.97 2.73 1.5.24.14.48.29.71.44.24.15.47.3.7.45.23.15.46.31.69.47.23.16.45.32.68.48.12.09.25.19.38.28.32.24.63.48.94.73.21.17.43.34.64.52l.63.54a38.87 38.87 0 0 1 3.53 3.5c.36.42.72.84 1.07 1.27.31.38.61.77.91 1.16.03.05.07.1.11.15.32.44.64.88.95 1.34 0 0 0 .01.01.02.31.46.61.92.9 1.4.57.92 1.1 1.87 1.58 2.85.03.05.06.11.08.16.24.47.46.95.67 1.43.46 1.02.87 2.07 1.23 3.14.01.02.01.04.02.05.17.52.34 1.04.49 1.57.16.55.31 1.1.44 1.65.14.56.26 1.12.37 1.68.09.5.18 1 .26 1.5l.03.2v.01l.12.88c.04.27.07.54.09.82a32.104 32.104 0 0 1 .17 2.46c.02.47.03.95.03 1.42z" class="secondary" opacity="1"/></g><path d="M173.424 9.172h-346.848V-9.172h346.848V9.172z" class="tertiary" style="display:block" transform="translate(215.039 334.905)"/><g opacity=".5" style="mix-blend-mode:multiply;display:block"><path d="M63.2 325.735v18.34H41.58v-18.34H63.2z" class="tertiary" opacity="1"/></g><path d="M86.47 49.736c-.01.31-.03.62-.04.92l-156.86.06c-.35.01-.55 0-.58 0-6.13-.46-11.89-4.6-14.21-10.32-1.47-3.62-1.62-7.641-1.42-11.541.11-2.08 3.45-24.61 15.85-40.04 3.77-4.69 8.48-8.829 13.96-12.359.36-1.65.94-3.19 1.87-4.53.23-.34.48-.67.76-.98 2.63-2.97 6.68-4 10.98-4.55 6.68-.87 13.68-1.3 19.3-5.43 5.3-3.89 10.28-12.09 17.69-11.67 6.28.35 9.8 6.46 13.04 11 .8 1.12 1.66 2.189 2.58 3.209 0 0 .01.011.02.031l.26.4h.04c.05-.01.1-.01.17-.02 3.65-.37 7.36-.46 11.09-.23 9.5.57 18.91 3.019 27.42 7.309 16.88 8.52 30.02 24.251 35.18 42.441 3.33 11.73 3.43 24.11 2.9 36.3z" class="secondary" style="display:block" transform="translate(161.626 79.121)"/><g opacity=".5" style="mix-blend-mode:multiply;display:block"><path d="M131.927 56.827c-.49 1.46-1.08 3.17-1.73 5.04-11.33 10.57-19.18 24.85-21.1 41.13-.2 1.69-.35 3.42-.51 5.15-2.16 2.59-3.05 4.72-1.1 5.91.05.03.1.06.16.09l.15.09c-.58 3.1-1.53 6.06-3.33 8.65-2.96 4.27-8.08 6.95-13.27 6.95-.35.01-.55 0-.58 0-6.13-.46-11.89-4.6-14.21-10.32-1.47-3.62-1.62-7.64-1.42-11.54.11-2.08 3.45-24.61 15.85-40.04 3.77-4.69 8.48-8.83 13.96-12.36 13.61-10.06 29.04-4.46 27.13 1.25z" class="secondary" opacity="1"/></g><path d="M39.869-28.262c-.04 0-.09.01-.15.02-15.44 1.64-29.86 8.44-40.95 18.79-11.33 10.57-19.18 24.85-21.1 41.13-.2 1.69-.35 3.42-.51 5.15-.19 2.05-.42 4.1-.79 6.09l-.15-.09c-.06-.03-.11-.06-.16-.09-6.44-3.91-14.6-7.06-15.8-13.77-1.4-7.78 9.06-15.57 11.83-23.88 1.91-5.71-.2-14.21 1.28-20.83.36-1.65.94-3.19 1.87-4.53.23-.34.48-.67.76-.98 2.63-2.97 6.68-4 10.98-4.55 6.68-.87 13.68-1.3 19.3-5.43 5.3-3.89 10.28-12.09 17.69-11.67 6.28.35 9.8 6.46 13.04 11 .8 1.12 1.66 2.19 2.58 3.21 0 0 .01.01.02.03l.26.4z" class="quaternary" style="display:block" transform="translate(131.427 71.319)"/><g opacity=".5" style="mix-blend-mode:multiply;display:block"><path d="M124.086 44.787c-2.84.78-5.36 2.05-7.24 4.25-.3.35-.58.72-.83 1.11-1.01 1.52-1.65 3.27-2.04 5.15-1.62 7.52.69 17.18-1.4 23.67-3.03 9.44-14.46 18.29-12.93 27.13.3 1.72.98 3.23 1.93 4.59-4.73-2.7-9.04-5.66-9.89-10.4-1.4-7.78 9.06-15.57 11.83-23.88 1.91-5.71-.2-14.21 1.28-20.83.36-1.65.94-3.19 1.87-4.53.23-.34.48-.67.76-.98 2.63-2.97 6.68-4 10.98-4.55 1.88-.25 3.79-.46 5.68-.73z" class="quaternary" opacity="1"/></g><path fill="none" stroke="#FFF" stroke-linecap="round" stroke-linejoin="round" stroke-width="10.5" d="M-.068 0h.136" class="primary" style="display:block" transform="translate(98.467 345.307)"/><path fill="none" stroke="#FFF" stroke-linecap="round" stroke-linejoin="round" stroke-width="10.5" d="M-.068 0h.136" class="primary" style="display:block" transform="translate(297.206 345.307)"/><path d="M71.925-36.445v72.89h-143.85v-72.89h143.85z" class="tertiary" style="display:block" transform="translate(169.607 259.207)"/><path d="M93.705-14.74v29.48h-187.41v-29.48h187.41z" class="senary" style="display:block" transform="translate(170.607 208.022)"/><g opacity=".5" style="mix-blend-mode:multiply;display:block"><path d="M241.532 222.762v72.89H97.682v-72.89h143.85z" class="tertiary" opacity="1"/></g><path d="M28.91-14.61V20.2h-57.82v-40.4H28.5v.01l.12.88c.04.27.07.54.09.82a32.104 32.104 0 0 1 .17 2.46c.02.47.03.95.03 1.42z" class="septenary" style="display:block" transform="translate(359.55 246.022)"/><g fill="none" stroke="#FFF" stroke-linecap="round" stroke-linejoin="round" stroke-width="10.5" style="display:block"><path d="M387.531 225.537h-56.896v40.408h57.827m-57.827 30.535h9.464m-255.171-1.111H254.28m-156.602 0v-72.384m143.852 0v72.384M91.7 129.639c-.36 0-.72-.01-1.08-.04-6.14-.46-11.9-4.6-14.22-10.32-1.47-3.62-1.62-7.64-1.41-11.54.11-2.08 3.45-24.61 15.85-40.04 3.76-4.68 7.72-8.33 13.19-11.85" class="primary"/><path d="M171.39 42.809a6.96 6.96 0 0 1-.37-.42c-.92-1.02-1.78-2.09-2.58-3.21-3.25-4.54-6.77-10.65-13.04-11-7.41-.42-12.4 7.78-17.69 11.67-5.63 4.13-12.62 4.56-19.3 5.42-4.31.56-8.35 1.59-10.99 4.56-.27.31-.52.64-.76.98-.93 1.35-1.52 2.89-1.88 4.54-1.46 6.62.64 15.11-1.26 20.82-2.77 8.31-13.23 16.1-11.84 23.88 1.2 6.71 9.36 9.86 15.81 13.77l.15.09c.05.03.11.07.16.1m156.511 108.476H76.897v-29.484h187.414v29.484z" class="primary"/><path d="M297.669 343.837H41.537v-182.53h256.132v182.53zm0-150.709h52.789c20.987 0 38 17.013 38 38v112.709h-90.789m-49.57-215.22-.041.921-156.857.059c5.191.003 10.311-2.679 13.265-6.947 3.918-5.662 3.822-13.048 4.625-19.886 2.148-18.289 28.307-62.934 73.504-60.201 9.508.575 18.916 3.022 27.427 7.317 16.88 8.518 30.018 24.244 35.181 42.433 3.33 11.73 3.423 24.113 2.896 36.304zM147.998 99.791l.093.003m31.225-.003.094.003m31.225-.003.094.003m-46.465-17.953.094.003m31.225-.003.093.003m24.229 47.799v31.664m-100.27-31.664v31.664" class="primary"/></g><g clip-path="url(#c)" style="display:block"><path d="M-30.333 0c0 16.752 13.581 30.333 30.333 30.333S30.333 16.752 30.333 0 16.752-30.333 0-30.333-30.333-16.752-30.333 0z" class="quinary" style="display:block" transform="translate(98.463 344.718)"/><path d="M-30.333 0c0 16.752 13.581 30.333 30.333 30.333S30.333 16.752 30.333 0 16.752-30.333 0-30.333-30.333-16.752-30.333 0z" class="quinary" style="display:block" transform="translate(297.202 344.718)"/></g><path fill="none" stroke="#FFF" stroke-linecap="round" stroke-linejoin="round" stroke-width="10.5" d="M68.13 344.718c0 16.752 13.581 30.333 30.333 30.333s30.333-13.581 30.333-30.333-13.581-30.333-30.333-30.333-30.333 13.581-30.333 30.333zm30.265 0h.136m168.338 0c0 16.752 13.581 30.333 30.333 30.333s30.333-13.581 30.333-30.333-13.581-30.333-30.333-30.333-30.333 13.581-30.333 30.333zm30.265 0h.136" class="primary" style="display:block"/></g></g></svg>